<?xml version="1.0" encoding="utf-8"?>
<!-- Generator: Adobe Illustrator 27.3.1, SVG Export Plug-In . SVG Version: 6.00 Build 0)  -->
<svg version="1.1" id="Layer_1" xmlns="http://www.w3.org/2000/svg" xmlns:xlink="http://www.w3.org/1999/xlink" x="0px" y="0px"
	 viewBox="0 0 212.5 173.5" style="enable-background:new 0 0 212.5 173.5;" xml:space="preserve">
<style type="text/css">
	.st0{fill:#FFFFFF;}
	.st1{fill:#265787;}
	.st2{fill:#EA7600;}
</style>
<path class="st0" d="M83.6,96.3c0.8-13.9,7.5-26.1,17.7-34.8c10-8.5,23.5-13.7,38.2-13.7c14.7,0,28.2,5.2,38.2,13.7
	c10.2,8.7,17,20.9,17.7,34.8c0.8,14.3-4.9,27.5-14.9,37.3c-10.2,10-24.7,16.3-41,16.3s-30.8-6.3-41-16.3
	C88.5,123.8,82.8,110.5,83.6,96.3L83.6,96.3z"/>
<path class="st1" d="M110.8,97.5c0.4-7.1,3.9-13.4,9.1-17.8c5.1-4.4,12-7,19.6-7c7.5,0,14.4,2.7,19.6,7c5.2,4.4,8.7,10.7,9.1,17.8
	c0.4,7.3-2.5,14.1-7.7,19.2c-5.2,5.1-12.7,8.3-21,8.3c-8.3,0-15.8-3.2-21-8.3C113.3,111.6,110.4,104.8,110.8,97.5L110.8,97.5z"/>
<path class="st2" d="M65.1,111.9c0,2.8,0.9,8.2,2.3,12.4c2.8,9,7.5,17.2,14.1,24.5c6.8,7.5,15.1,13.5,24.7,17.8
	c10.1,4.5,21,6.8,32.4,6.8c11.3,0,22.3-2.4,32.4-6.9c9.6-4.3,17.9-10.4,24.7-17.9c6.6-7.3,11.3-15.6,14.1-24.6
	c1.4-4.5,2.3-9.1,2.7-13.7c0.3-4.5,0.2-9.1-0.4-13.6c-1.3-8.9-4.3-17.2-9-24.7c-4.3-7-9.8-13-16.4-18.2l0,0L120.1,2.6
	c-0.1,0-0.1-0.1-0.2-0.1c-4.4-3.4-11.7-3.3-16.5,0c-4.8,3.4-5.4,9-1.1,12.6l0,0l27.7,22.6l-84.4,0.1h-0.1c-7,0-13.7,4.6-15,10.4
	c-1.4,5.9,3.4,10.8,10.6,10.9l0,0l42.8-0.1L7.6,117.9c-0.1,0.1-0.2,0.1-0.3,0.2c-7.2,5.5-9.5,14.8-5,20.6c4.6,5.9,14.4,5.9,21.7,0
	l41.7-34.3C65.6,104.5,65,109.1,65.1,111.9L65.1,111.9z M172.1,127.4c-8.6,8.8-20.6,13.8-33.6,13.8c-13,0-25-4.9-33.6-13.7
	c-4.2-4.3-7.3-9.2-9.2-14.4c-1.9-5.1-2.6-10.6-2.1-16.1c0.5-5.4,2.1-10.5,4.6-15.2c2.5-4.6,6-8.7,10.2-12.2
	c8.3-6.8,19-10.5,30.1-10.5c11.1,0,21.7,3.6,30.1,10.5c4.2,3.5,7.7,7.6,10.2,12.2c2.6,4.6,4.1,9.8,4.6,15.2c0.5,5.5-0.3,11-2.1,16.1
	C179.4,118.2,176.3,123.1,172.1,127.4L172.1,127.4z"/>
</svg>
